HIERARCHY
ROOT Hips
{
  OFFSET 0 0 0
  CHANNELS 6 Xposition Yposition Zposition Zrotation Xrotation Yrotation
  JOINT Spine
  {
    OFFSET 0 8.08348 0
    CHANNELS 3 Zrotation Xrotation Yrotation
    JOINT Spine1
    {
      OFFSET 0 24.6145 0
      CHANNELS 3 Zrotation Xrotation Yrotation
      JOINT Neck
      {
        OFFSET 0 24.5134 2.22849
        CHANNELS 3 Zrotation Xrotation Yrotation
        JOINT Head
        {
          OFFSET 0 13.8011 -1.97158
          CHANNELS 3 Zrotation Xrotation Yrotation
          End Site
          {
            OFFSET 0 19.7158 0
          }
        }
      }
      JOINT LeftShoulder
      {
        OFFSET 3.94856 23.7669 -0.001842
        CHANNELS 3 Zrotation Xrotation Yrotation
        JOINT LeftArm
        {
          OFFSET 8.44442 0 0
          CHANNELS 3 Zrotation Xrotation Yrotation
          JOINT LeftForeArm
          {
            OFFSET 36.6799 0 0
            CHANNELS 3 Zrotation Xrotation Yrotation
            JOINT LeftHand
            {
              OFFSET 28.1618 0 0
              CHANNELS 3 Zrotation Xrotation Yrotation
              End Site
              {
                OFFSET 14.7869 0 0
              }
            }
          }
        }
      }
      JOINT RightShoulder
      {
        OFFSET -3.93736 23.7669 -0.001842
        CHANNELS 3 Zrotation Xrotation Yrotation
        JOINT RightArm
        {
          OFFSET -8.44442 0 0
          CHANNELS 3 Zrotation Xrotation Yrotation
          JOINT RightForeArm
          {
            OFFSET -36.6799 0 0
            CHANNELS 3 Zrotation Xrotation Yrotation
            JOINT RightHand
            {
              OFFSET -28.1618 0 0
              CHANNELS 3 Zrotation Xrotation Yrotation
              End Site
              {
                OFFSET -14.7869 0 0
              }
            }
          }
        }
      }
    }
  }
  JOINT LeftUpLeg
  {
    OFFSET 9.8579 0 0
    CHANNELS 3 Zrotation Xrotation Yrotation
    JOINT LeftLeg
    {
      OFFSET 0 -43.507 0
      CHANNELS 3 Zrotation Xrotation Yrotation
      JOINT LeftFoot
      {
        OFFSET 0 -37.4368 0
        CHANNELS 3 Zrotation Xrotation Yrotation
        JOINT LeftToeBase
        {
          OFFSET 0 -6.40764 14.7869
          CHANNELS 3 Zrotation Xrotation Yrotation
          End Site
          {
            OFFSET 0 0 3.94316
          }
        }
      }
    }
  }
  JOINT RightUpLeg
  {
    OFFSET -9.8579 0 0
    CHANNELS 3 Zrotation Xrotation Yrotation
    JOINT RightLeg
    {
      OFFSET 0 -43.507 0
      CHANNELS 3 Zrotation Xrotation Yrotation
      JOINT RightFoot
      {
        OFFSET 0 -37.4368 0
        CHANNELS 3 Zrotation Xrotation Yrotation
        JOINT RightToeBase
        {
          OFFSET 0 -6.40764 14.7869
          CHANNELS 3 Zrotation Xrotation Yrotation
          End Site
          {
            OFFSET 0 0 3.94316
          }
        }
      }
    }
  }
}
MOTION
Frames:	19
Frame Time:	0.0166667
19.8674 80.3307 -12.3973 4.74713 7.69262 -40.2247 0.514086 45.5612 3.51665 -0.196221 3.04427 1.22782 -3.24524 16.0214 14.6461 -21.9923 -46.3478 3.35142 -1.82124 5.38936 -10.7439 -40.9693 20.6498 -22.5898 21.2183 -33.4121 -59.4995 14.8831 -22.2361 2.70304 1.07728 6.70407 14.7941 34.0108 5.45832 21.7338 -10.8832 -21.1531 53.7427 -8.65913 -15.6767 -3.15561 13.5047 -48.853 18.7388 -5.43796 58.3201 -0.241065 6.75474 -14.2112 15.9705 -6.95746e-016 -3.97569e-016 3.18055e-015 -18.4897 -38.432 -6.13855 -7.59844 77.8172 20.777 -2.77955 -6.90685 -33.5648 3.18055e-015 0 -0 
19.8984 80.3763 -11.3885 4.35641 7.66263 -40.23 0.716135 45.6567 3.40794 -0.00596 3.02815 1.21453 -2.98011 16.0353 14.7031 -22.0262 -46.3191 3.39723 -1.667 5.2827 -10.71 -40.5792 20.4323 -22.6851 21.4429 -33.3682 -59.4523 15.2418 -22.0729 2.64758 1.22494 6.75087 14.8491 34.0758 4.96267 21.4987 -10.3926 -21.0498 53.6452 -10.029 -15.7882 -3.13232 13.2416 -48.2722 18.8681 -5.3475 58.9144 -0.502196 7.32536 -15.0063 16.2878 5.96354e-016 0 6.36111e-015 -17.8539 -39.7187 -7.51484 -9.91256 78.9406 22.0849 -2.52786 -9.49893 -29.2004 -1.32417e-031 1.59028e-015 4.77083e-015 
19.9419 80.4481 -10.4164 4.17577 7.70448 -40.299 0.825726 45.5951 3.31046 0.161904 3.0065 1.19256 -2.84436 16.0205 14.7377 -21.9929 -46.3098 3.4538 -1.58545 5.14721 -10.669 -40.2021 20.1775 -22.7127 21.8926 -33.3089 -59.3705 15.3177 -21.7856 2.56363 1.31954 6.807 14.8442 34.1474 4.74677 21.3238 -10.5393 -21.0427 53.3186 -9.2705 -15.7826 -2.9098 12.9863 -47.7816 18.9629 -5.63232 59.2995 -0.142118 7.97658 -15.6689 16.3338 4.47266e-016 -5.96354e-016 3.18055e-015 -17.3659 -41.1989 -8.66131 -8.72764 79.6206 21.1947 -1.67147 -11.4562 -25.9589 6.36111e-015 0 -0 
19.9884 80.5475 -9.49015 4.12582 7.73037 -40.3857 0.815623 45.4807 3.23073 0.379292 3.0041 1.15848 -2.81198 16.1181 14.7061 -22.1556 -46.4864 3.29324 -1.5207 5.03275 -10.8067 -39.8956 19.7812 -22.5628 22.2094 -33.3206 -59.4539 15.8888 -21.5834 2.61297 1.28477 6.88479 14.8509 34.2852 4.40848 21.2192 -10.3441 -20.9763 53.1967 -9.33468 -15.8281 -2.82302 12.6416 -47.3071 19.2408 -5.51749 59.5602 -0.457973 8.45906 -16.2716 16.5025 0 1.98785e-016 -0 -16.7847 -42.4578 -9.82226 -6.41658 79.5435 20.6766 0.17993 -14.1895 -25.632 -3.18055e-015 -4.77083e-015 -9.54166e-015 
20.0529 80.6983 -8.61759 4.24823 7.82028 -40.4668 0.897801 45.3305 3.04842 0.369293 2.96035 1.10911 -2.67541 16.0169 14.7071 -22.2706 -46.5316 3.22428 -1.39185 4.93692 -10.6537 -39.4884 19.5899 -22.7211 22.5575 -33.3668 -59.464 16.5652 -21.4325 2.54316 1.2947 6.78428 14.8341 34.5515 4.19702 21.0465 -9.89628 -21.0375 53.2921 -9.9667 -16.0761 -2.91375 12.1336 -46.9181 19.512 -5.29403 59.5415 -0.533285 8.86801 -16.7366 16.4722 -5.96354e-016 -1.98785e-016 3.18055e-015 -16.1265 -43.726 -11.2297 -4.80797 78.9251 21.495 1.97259 -17.526 -27.0575 -8.82781e-032 -1.59028e-015 -3.18055e-015 
20.1069 80.894 -7.79486 4.47135 7.90695 -40.5235 1.02993 45.1847 2.83287 0.267521 2.8871 1.05818 -2.63722 15.9434 14.6408 -22.3196 -46.5967 3.11632 -1.2255 4.80831 -10.6608 -39.1155 19.5474 -22.7378 23.0466 -33.5758 -59.3692 17.3489 -21.4075 2.48434 1.32295 6.75713 14.7794 34.761 4.03077 20.8711 -10.1314 -20.8674 53.2051 -8.99484 -15.8404 -2.64069 11.546 -46.5368 19.6674 -5.20814 59.3487 -0.620092 9.35287 -16.9885 16.5135 9.93923e-017 1.98785e-016 3.18055e-015 -15.2927 -44.7465 -12.4191 -2.07891 77.6026 20.5502 1.79039 -20.364 -28.3676 1.59028e-015 -3.97569e-015 -0 
20.1349 81.1302 -7.04939 4.72237 8.1089 -40.5367 1.12615 44.9673 2.68503 0.325308 2.75888 1.02056 -2.67815 16.0385 14.6268 -22.6143 -46.7256 2.91022 -1.17228 4.61996 -10.7847 -38.8077 19.6506 -22.588 23.4988 -33.8738 -59.197 18.0785 -21.4902 2.6652 1.27076 6.79252 14.8256 34.8785 3.97869 20.6743 -10.2548 -20.891 53.2235 -8.94998 -15.8112 -2.53937 11.0464 -46.2718 19.7068 -5.30208 59.0629 -0.64087 9.74924 -17.1069 16.6481 3.97569e-016 -3.97569e-016 -0 -14.2992 -45.6631 -13.6158 0.241716 75.6503 19.2121 0.528149 -21.821 -28.463 1.59028e-015 -1.59028e-015 -3.18055e-015 
20.1194 81.3892 -6.33384 4.89544 8.3247 -40.5531 1.37458 44.7772 2.51314 0.190407 2.71992 1.00011 -2.6178 15.9607 14.6231 -22.6856 -46.6213 2.89022 -0.977128 4.59287 -10.709 -38.5235 19.6707 -22.7315 24.0326 -34.08 -59.0504 18.5591 -21.4353 2.7679 1.33698 6.75477 14.7812 34.8717 3.96342 20.5496 -9.77621 -20.8681 53.4942 -10.2338 -15.9509 -2.7035 10.5677 -45.9941 19.678 -5.11998 58.7715 -0.695645 9.87016 -17.2041 16.5981 9.93923e-017 3.97569e-016 3.18055e-015 -13.0809 -46.2789 -14.5005 2.2286 73.2209 17.505 1.17195 -22.9469 -27.2699 0 0 -0 
20.0839 81.6425 -5.67168 5.02673 8.51419 -40.6555 1.36674 44.6321 2.50742 0.33669 2.60725 0.993715 -2.86245 16.2309 14.5563 -22.742 -46.8475 2.73551 -1.06676 4.487 -10.7462 -38.3308 19.6948 -22.508 24.4066 -34.1794 -58.894 18.9074 -21.3393 2.97842 1.22851 6.72667 14.8042 34.7982 4.16469 20.5196 -9.54971 -20.8836 53.6073 -10.9882 -16.032 -2.88554 10.141 -45.7245 19.3857 -5.2826 58.4886 -0.154594 9.96702 -17.2162 16.5227 -9.93923e-017 7.95139e-016 -3.18055e-015 -11.6366 -46.6073 -14.9284 3.77948 70.4159 15.7023 2.58256 -23.4041 -24.9328 -7.95139e-016 4.96962e-016 -0 
20.0277 81.8989 -5.02378 5.1507 8.62104 -40.7575 1.51287 44.4936 2.38509 0.229988 2.61395 0.975005 -3.06914 16.4058 14.4965 -22.5973 -47.0098 2.71471 -1.03833 4.49447 -10.7297 -38.2755 19.464 -22.363 24.6106 -34.0925 -58.8456 18.7691 -21.1713 2.80043 1.19204 6.65237 14.7962 34.6974 4.46381 20.5557 -9.48799 -20.8577 53.6912 -10.9181 -16.0545 -2.60698 9.58929 -45.3949 19.0043 -5.21984 58.1966 -0.006815 10.0011 -17.1945 16.677 3.97569e-016 0 -0 -10.1787 -46.5818 -14.9838 4.57414 67.2762 14.5501 5.34726 -23.7957 -21.2961 1.98785e-015 -7.95139e-016 3.18055e-015 
19.9643 82.1562 -4.41293 5.38426 8.62399 -40.9323 1.52095 44.4002 2.3859 0.014559 2.61648 0.981243 -3.23433 16.6721 14.4527 -22.7122 -47.4264 2.51024 -1.02245 4.4951 -10.7256 -38.2162 19.3458 -22.2471 24.799 -33.9629 -58.7471 18.4775 -20.9382 2.90272 1.21282 6.67669 14.7869 34.61 4.61845 20.5868 -9.51758 -20.8512 53.7786 -10.8026 -16.0165 -2.72347 8.91876 -45.0496 18.445 -5.38482 57.8348 0.562109 9.73339 -17.1309 16.621 -7.95139e-016 -3.97569e-016 3.18055e-015 -8.7352 -46.4477 -14.7674 5.07581 64.197 14.4875 7.12626 -23.875 -18.9794 1.59028e-015 2.38542e-015 9.54166e-015 
19.8922 82.4125 -3.84689 5.69795 8.51958 -41.0631 1.39798 44.3275 2.42547 -0.120058 2.65886 0.98082 -3.59352 16.9719 14.3266 -22.6242 -47.981 2.30108 -1.08677 4.59781 -10.7013 -38.1573 19.1377 -22.2469 24.8613 -33.7955 -58.5845 17.7347 -20.8063 2.70642 1.13177 6.69607 14.8047 34.5473 4.80406 20.6101 -9.69727 -20.9615 53.9143 -10.5533 -16.0337 -2.72022 8.22582 -44.7796 17.961 -5.59408 57.5992 1.01553 9.71654 -16.7693 16.7085 -1.39149e-015 0 3.18055e-015 -7.46233 -46.2079 -14.4429 4.98494 61.3781 16.0178 7.60726 -23.7842 -18.0067 6.36111e-015 -4.77083e-015 -6.36111e-015 
19.7922 82.6779 -3.34335 6.1044 8.34678 -41.234 0.990591 44.3272 2.64122 -0.174836 2.63147 0.999032 -3.95394 17.3321 14.1326 -22.5685 -48.6792 1.96879 -1.12077 4.51311 -10.6764 -38.197 19.4382 -22.1444 25.1603 -33.8094 -58.1314 17.063 -20.7907 2.7447 0.976448 6.61192 14.8279 34.5901 5.11439 20.5734 -9.80667 -21.2156 54.1467 -10.6986 -16.1977 -2.90079 7.91783 -44.8408 17.6566 -6.38439 57.8981 1.99856 8.85184 -15.8735 16.1943 0 0 -0 -6.28382 -45.9843 -13.8222 5.17709 59.1133 17.5506 4.52145 -23.0666 -19.0995 -3.97252e-031 2.38542e-015 9.54166e-015 
19.671 82.9007 -2.93432 6.45296 8.14711 -41.2909 0.723834 44.4666 2.76163 -0.363905 2.48123 1.00735 -4.26548 17.8447 13.9814 -22.5672 -49.5344 1.60973 -1.00837 4.6088 -10.577 -38.3325 19.4804 -22.2026 25.0306 -33.6804 -57.9579 16.9718 -20.7273 3.03135 1.03108 6.61291 14.8061 34.4458 5.35513 20.6241 -9.85973 -21.4413 54.3705 -10.9404 -16.3598 -3.06295 8.17758 -45.5509 17.7148 -7.26303 59.2744 2.66846 7.46035 -13.8937 15.6667 1.19271e-015 -3.18055e-015 -3.18055e-015 -5.15371 -45.7763 -13.257 5.23573 57.5625 18.0682 0.198937 -21.4373 -21.2516 -5.56597e-015 2.38542e-015 -6.36111e-015 
19.5172 83.01 -2.60495 6.70776 8.00534 -41.2004 0.457464 44.5376 2.92344 -0.370521 2.3479 1.02481 -4.64467 18.4383 13.8218 -22.3472 -50.4454 1.34981 -0.953215 4.76769 -10.5601 -38.3856 19.8098 -22.2402 24.9342 -33.8004 -57.706 16.9624 -20.9314 3.41311 0.954877 6.49503 14.7357 34.4175 5.73571 20.6313 -9.98996 -21.6654 54.5115 -11.264 -16.5093 -2.99289 9.24169 -47.0451 18.1555 -8.80488 61.8082 3.91706 4.794 -10.8913 14.3816 7.95139e-016 -1.59028e-015 -0 -4.15266 -45.6504 -12.6572 4.95904 56.7583 17.0038 -4.59873 -18.5336 -22.9418 -7.95139e-016 0 -6.36111e-015 
19.3304 82.9717 -2.2861 6.87462 7.74914 -40.8895 0.315675 44.5843 2.93399 -0.324436 2.33787 1.00811 -4.99891 19.1052 13.6149 -22.2814 -51.3549 0.944572 -0.976199 4.83155 -10.5251 -38.4819 20.2225 -22.2145 24.8085 -33.8908 -57.5138 17.0156 -21.1051 3.75121 0.932597 6.47284 14.6333 34.2738 5.96886 20.6869 -10.2818 -21.767 54.5837 -11.0563 -16.4706 -2.94298 10.7176 -48.9113 19.0443 -10.4944 64.9428 4.86203 2.77263 -7.12971 13.3155 7.95139e-016 1.27222e-014 -0 -3.67808 -45.2954 -12.0504 4.59489 56.2928 14.7042 -7.62336 -16.5908 -22.9654 -4.96962e-016 -2.98177e-016 3.18055e-015 
19.1263 82.7636 -1.92651 6.95514 7.29717 -40.4423 0.354696 44.7094 2.78126 -0.434701 2.38284 0.965073 -5.06272 19.75 13.2695 -22.586 -52.0576 0.220611 -1.01553 4.96713 -10.4857 -38.655 20.3408 -22.1795 24.5215 -33.7432 -57.5568 16.4536 -21.0635 4.03271 0.950289 6.38177 14.6025 34.1939 6.2221 20.5381 -10.555 -21.8758 54.7793 -11.0077 -16.4226 -2.97391 12.1462 -50.9903 19.8691 -12.1485 68.4101 5.93789 1.0486 -3.24909 11.8771 -1.59028e-015 -3.18055e-015 3.18055e-015 -3.68436 -44.731 -11.6023 3.98228 56.1586 12.1261 -8.69603 -16.5618 -20.7881 2.98177e-016 -4.96962e-017 -3.18055e-015 
18.9275 82.3875 -1.5449 6.98936 6.64557 -39.8822 0.382393 44.8757 2.52528 -0.553041 2.58345 0.887004 -5.21513 20.3494 12.9722 -22.6738 -52.8895 -0.354943 -1.06799 5.02378 -10.4662 -38.9195 20.4142 -22.0256 24.349 -33.5708 -57.6404 15.7402 -20.964 4.04673 0.92963 6.29201 14.5413 34.1121 6.42907 20.4146 -10.807 -21.9551 55.0128 -10.7436 -16.349 -3.06955 13.233 -53.0171 20.4352 -13.0706 71.9224 6.15645 1.48722 -0.375303 9.61206 1.76556e-031 -3.18055e-015 3.18055e-015 -4.30131 -44.5291 -11.3329 4.20414 57.2949 10.8567 -9.26381 -17.2557 -20.4941 3.97569e-016 -2.98177e-016 -0 
18.7025 81.8769 -1.09495 6.92972 5.7979 -39.3221 0.414241 45.228 2.24263 -0.786 2.73843 0.804384 -5.17995 20.8398 12.6395 -22.7839 -53.4941 -0.92253 -1.18446 5.26209 -10.5276 -39.1475 20.2353 -21.7847 24.272 -33.3079 -57.7981 14.8635 -20.7404 3.70831 1.09715 6.28834 14.4449 33.9841 6.43641 20.3067 -11.131 -21.8829 55.1827 -10.5337 -16.1092 -2.9147 14.0033 -54.4591 20.395 -13.0655 74.8855 4.97967 1.69114 0.366931 7.08465 0 3.18055e-015 -0 -5.33746 -44.5596 -11.5569 4.23717 59.5492 13.7372 -10.1477 -17.5768 -24.0071 5.96354e-016 9.93923e-016 -9.54166e-015 
